<svg width="16" height="16" viewBox="0 0 16 16" fill="none" xmlns="http://www.w3.org/2000/svg">
<path fill-rule="evenodd" clip-rule="evenodd" d="M0 8C0 3.584 3.584 0 8 0C12.416 0 16 3.584 16 8C16 12.416 12.416 16 8 16C3.584 16 0 12.416 0 8ZM11.7413 5.51015L9.24794 8.00508L11.7362 10.4898C11.9087 10.6599 11.9949 10.8883 11.9949 11.1142C11.9949 11.3401 11.9087 11.5685 11.7362 11.7411C11.5663 11.9137 11.338 12 11.1122 12C10.889 12 10.6607 11.9137 10.4883 11.7411L7.99746 9.24873L5.50666 11.7411C5.33672 11.9137 5.10843 12 4.88269 12C4.65948 12 4.4312 11.9137 4.25872 11.7411C4.08624 11.5711 4 11.3426 4 11.1168C4 10.8934 4.08624 10.665 4.25872 10.4924L6.74952 8L4.25872 5.50761C4.08624 5.33756 4 5.10914 4 4.88325C4 4.6599 4.08624 4.43147 4.25872 4.25888C4.42866 4.08629 4.65694 4 4.88269 4C5.1059 4 5.33418 4.08629 5.50666 4.25888L8.00254 6.75381L10.4933 4.26142C10.6633 4.08883 10.8916 4.00254 11.1173 4.00254C11.3405 4.00254 11.5688 4.08883 11.7413 4.26142C11.9138 4.43147 12 4.6599 12 4.88579C12 5.10914 11.9138 5.33756 11.7413 5.51015Z" fill="#D42F1A"/>
</svg>
