<svg width="16" height="15" viewBox="0 0 16 15" fill="none" xmlns="http://www.w3.org/2000/svg">
<path d="M10.7809 7.31486L10.136 6.67003C10.2569 5.97145 10.0589 5.36343 9.54197 4.84594C9.02448 4.329 8.41646 4.13098 7.71788 4.25189L7.07305 3.60705C7.20739 3.55332 7.34845 3.51301 7.49622 3.48615C7.644 3.45928 7.81192 3.44584 8 3.44584C8.81948 3.44584 9.51483 3.73118 10.086 4.30186C10.6567 4.87308 10.9421 5.56843 10.9421 6.38791C10.9421 6.57599 10.9286 6.74714 10.9018 6.90136C10.8749 7.05612 10.8346 7.19395 10.7809 7.31486ZM13.3199 9.79345L12.7154 9.24937C13.2259 8.85978 13.6794 8.43312 14.076 7.96937C14.472 7.50616 14.8111 6.97901 15.0932 6.38791C14.4215 5.03107 13.4575 3.95285 12.2011 3.15325C10.9453 2.35419 9.54492 1.95466 8 1.95466C7.61041 1.95466 7.22754 1.98153 6.85139 2.03526C6.47523 2.089 6.10579 2.16961 5.74307 2.27708L5.11839 1.65239C5.58858 1.47775 6.06549 1.35013 6.54912 1.26952C7.03275 1.18892 7.51637 1.14861 8 1.14861C9.74643 1.14861 11.3451 1.62875 12.796 2.58902C14.2469 3.54982 15.3149 4.81612 16 6.38791C15.7044 7.03275 15.3382 7.6405 14.9014 8.21118C14.465 8.7824 13.9379 9.30982 13.3199 9.79345ZM14.2267 14.1662L11.0831 11.0227C10.7338 11.1839 10.294 11.3249 9.76363 11.4458C9.23271 11.5668 8.64484 11.6272 8 11.6272C6.24014 11.6272 4.64148 11.1468 3.20403 10.186C1.76658 9.22573 0.698573 7.9597 0 6.38791C0.308984 5.6759 0.722217 5.00742 1.2397 4.38247C1.75664 3.75805 2.30395 3.23762 2.88161 2.82116L0.624685 0.564232L1.20907 0L14.7909 13.5819L14.2267 14.1662ZM3.44584 3.38539C2.98908 3.72124 2.51889 4.15785 2.03526 4.69521C1.55164 5.23258 1.17548 5.79681 0.906801 6.38791C1.57851 7.74475 2.54227 8.8227 3.79809 9.62176C5.05444 10.4214 6.45508 10.8212 8 10.8212C8.47019 10.8212 8.94039 10.7774 9.41058 10.6898C9.88077 10.6027 10.2368 10.5122 10.4786 10.4181L9.14862 9.08816C9.02771 9.15533 8.85307 9.21229 8.62469 9.25904C8.39631 9.30633 8.18808 9.32998 8 9.32998C7.18052 9.32998 6.48544 9.04437 5.91476 8.47315C5.34354 7.90247 5.05794 7.20739 5.05794 6.38791C5.05794 6.21327 5.08158 6.01498 5.12887 5.79305C5.17562 5.57165 5.23258 5.38707 5.29975 5.2393L3.44584 3.38539Z" fill="#1C1B1F"/>
</svg>
