<svg width="16" height="11" viewBox="0 0 16 11" fill="none" xmlns="http://www.w3.org/2000/svg">
<path d="M8 8.31954C8.81948 8.31954 9.51483 8.03394 10.086 7.46272C10.6567 6.89204 10.9421 6.19696 10.9421 5.37748C10.9421 4.558 10.6567 3.86265 10.086 3.29143C9.51483 2.72075 8.81948 2.43541 8 2.43541C7.18052 2.43541 6.48544 2.72075 5.91476 3.29143C5.34354 3.86265 5.05794 4.558 5.05794 5.37748C5.05794 6.19696 5.34354 6.89204 5.91476 7.46272C6.48544 8.03394 7.18052 8.31954 8 8.31954ZM8 7.5538C7.39547 7.5538 6.88175 7.34208 6.45884 6.91864C6.0354 6.49573 5.82368 5.98201 5.82368 5.37748C5.82368 4.77294 6.0354 4.25896 6.45884 3.83551C6.88175 3.41261 7.39547 3.20116 8 3.20116C8.60454 3.20116 9.11852 3.41261 9.54197 3.83551C9.96487 4.25896 10.1763 4.77294 10.1763 5.37748C10.1763 5.98201 9.96487 6.49573 9.54197 6.91864C9.11852 7.34208 8.60454 7.5538 8 7.5538ZM8 10.6168C6.25357 10.6168 4.66163 10.1434 3.22418 9.19652C1.78673 8.24915 0.712007 6.97614 0 5.37748C0.712007 3.77882 1.78673 2.50581 3.22418 1.55844C4.66163 0.611601 6.25357 0.138184 8 0.138184C9.74643 0.138184 11.3384 0.611601 12.7758 1.55844C14.2133 2.50581 15.288 3.77882 16 5.37748C15.288 6.97614 14.2133 8.24915 12.7758 9.19652C11.3384 10.1434 9.74643 10.6168 8 10.6168ZM8 9.81073C9.51805 9.81073 10.912 9.41093 12.1818 8.61133C13.451 7.81227 14.4215 6.73432 15.0932 5.37748C14.4215 4.02064 13.451 2.94242 12.1818 2.14282C10.912 1.34376 9.51805 0.944229 8 0.944229C6.48195 0.944229 5.08803 1.34376 3.81824 2.14282C2.54898 2.94242 1.57851 4.02064 0.906801 5.37748C1.57851 6.73432 2.54898 7.81227 3.81824 8.61133C5.08803 9.41093 6.48195 9.81073 8 9.81073Z" fill="#1C1B1F"/>
</svg>
